# xmcd
#
# Track frame offsets:
#	182
#	11782
#	27120
#	39060
#	52362
#	62667
#	74207
#	85752
#	98170
#	113982
#	128210
#	139007
#	169027
#	180982
#	195152
#	207597
#	218662
#
# Disc length: 3098 seconds
#
# Revision: 0
# Processed by: cddbd v1.4PL0 Copyright (c) Steve Scherf et al.
# Submitted via: EasyCDDAExtractor 4.5.0.2
#
DISCID=ef0c1811
DTITLE=Little Milton - If Walls Could Talk
DYEAR=1976
DGENRE=Blues
TTITLE0=Losing Hand
TTITLE1=Blind Man
TTITLE2=We're Gonna Make It
TTITLE3=Who's Cheatin' Who?
TTITLE4=What Kind Of Love Is This
TTITLE5=Help Me, Help You
TTITLE6=So Mean To Me
TTITLE7=More And More
TTITLE8=Woke Up This Morning
TTITLE9=Driftin' Drifter
TTITLE10=Just A Little Bit
TTITLE11=I Can't Quit You Baby
TTITLE12=All Around The World
TTITLE13=If Walls Could Talk
TTITLE14=Baby I Love You
TTITLE15=I Play Dirty
TTITLE16=Many Rivers To Cross
EXTD=
EXTT0=
EXTT1=
EXTT2=
EXTT3=
EXTT4=
EXTT5=
EXTT6=
EXTT7=
EXTT8=
EXTT9=
EXTT10=
EXTT11=
EXTT12=
EXTT13=
EXTT14=
EXTT15=
EXTT16=
PLAYORDER=
